<?xml version="1.0" encoding="UTF-8"?>
<!DOCTYPE svg PUBLIC "-//W3C//DTD SVG 1.1//EN" "http://www.w3.org/Graphics/SVG/1.1/DTD/svg11.dtd">
<svg xmlns="http://www.w3.org/2000/svg" version="1.1" width="512px" height="512px" style="shape-rendering:geometricPrecision; text-rendering:geometricPrecision; image-rendering:optimizeQuality; fill-rule:evenodd; clip-rule:evenodd" xmlns:xlink="http://www.w3.org/1999/xlink">
<g><path style="opacity:0.99" fill="#bd4cff" d="M -0.5,-0.5 C 33.8333,-0.5 68.1667,-0.5 102.5,-0.5C 102.5,33.5 102.5,67.5 102.5,101.5C 136.167,101.5 169.833,101.5 203.5,101.5C 203.5,135.5 203.5,169.5 203.5,203.5C 169.5,203.5 135.5,203.5 101.5,203.5C 101.5,169.833 101.5,136.167 101.5,102.5C 67.5,102.5 33.5,102.5 -0.5,102.5C -0.5,68.1667 -0.5,33.8333 -0.5,-0.5 Z"/></g>
<g><path style="opacity:0.99" fill="#bd4cff" d="M 408.5,-0.5 C 442.833,-0.5 477.167,-0.5 511.5,-0.5C 511.5,33.8333 511.5,68.1667 511.5,102.5C 477.5,102.5 443.5,102.5 409.5,102.5C 409.5,136.167 409.5,169.833 409.5,203.5C 375.5,203.5 341.5,203.5 307.5,203.5C 307.5,169.5 307.5,135.5 307.5,101.5C 341.167,101.5 374.833,101.5 408.5,101.5C 408.5,67.5 408.5,33.5 408.5,-0.5 Z"/></g>
<g><path style="opacity:0.996" fill="#9300e9" d="M 204.5,101.5 C 238.5,101.5 272.5,101.5 306.5,101.5C 306.5,135.833 306.5,170.167 306.5,204.5C 272.5,204.5 238.5,204.5 204.5,204.5C 204.5,170.167 204.5,135.833 204.5,101.5 Z"/></g>
<g><path style="opacity:0.996" fill="#b12cff" d="M 203.5,101.5 C 203.833,101.5 204.167,101.5 204.5,101.5C 204.5,135.833 204.5,170.167 204.5,204.5C 204.167,204.5 203.833,204.5 203.5,204.5C 169.5,204.5 135.5,204.5 101.5,204.5C 101.5,204.167 101.5,203.833 101.5,203.5C 135.5,203.5 169.5,203.5 203.5,203.5C 203.5,169.5 203.5,135.5 203.5,101.5 Z"/></g>
<g><path style="opacity:0.996" fill="#b12cff" d="M 306.5,101.5 C 306.833,101.5 307.167,101.5 307.5,101.5C 307.5,135.5 307.5,169.5 307.5,203.5C 341.5,203.5 375.5,203.5 409.5,203.5C 409.5,203.833 409.5,204.167 409.5,204.5C 375.167,204.5 340.833,204.5 306.5,204.5C 306.5,170.167 306.5,135.833 306.5,101.5 Z"/></g>
<g><path style="opacity:0.996" fill="#9a02f2" d="M 306.5,204.5 C 340.833,204.5 375.167,204.5 409.5,204.5C 409.5,204.833 409.5,205.167 409.5,205.5C 375.5,205.5 341.5,205.5 307.5,205.5C 307.5,238.833 307.5,272.167 307.5,305.5C 341.5,305.5 375.5,305.5 409.5,305.5C 409.5,305.833 409.5,306.167 409.5,306.5C 375.167,306.5 340.833,306.5 306.5,306.5C 306.5,272.5 306.5,238.5 306.5,204.5 Z"/></g>
<g><path style="opacity:0.996" fill="#9300e9" d="M 101.5,204.5 C 135.5,204.5 169.5,204.5 203.5,204.5C 203.5,238.167 203.5,271.833 203.5,305.5C 169.5,305.5 135.5,305.5 101.5,305.5C 101.5,271.833 101.5,238.167 101.5,204.5 Z"/></g>
<g><path style="opacity:1" fill="#ba45ff" d="M 204.5,204.5 C 238.5,204.5 272.5,204.5 306.5,204.5C 306.5,238.5 306.5,272.5 306.5,306.5C 272.5,306.5 238.5,306.5 204.5,306.5C 204.5,272.5 204.5,238.5 204.5,204.5 Z"/></g>
<g><path style="opacity:1" fill="#bd4cff" d="M 205.5,205.5 C 238.833,205.5 272.167,205.5 305.5,205.5C 305.5,238.833 305.5,272.167 305.5,305.5C 272.167,305.5 238.833,305.5 205.5,305.5C 205.5,272.167 205.5,238.833 205.5,205.5 Z"/></g>
<g><path style="opacity:0.996" fill="#9200e9" d="M 409.5,205.5 C 409.5,238.833 409.5,272.167 409.5,305.5C 375.5,305.5 341.5,305.5 307.5,305.5C 307.5,272.167 307.5,238.833 307.5,205.5C 341.5,205.5 375.5,205.5 409.5,205.5 Z"/></g>
<g><path style="opacity:0.996" fill="#9b02f4" d="M 203.5,204.5 C 203.833,204.5 204.167,204.5 204.5,204.5C 204.5,238.5 204.5,272.5 204.5,306.5C 170.167,306.5 135.833,306.5 101.5,306.5C 101.5,306.167 101.5,305.833 101.5,305.5C 135.5,305.5 169.5,305.5 203.5,305.5C 203.5,271.833 203.5,238.167 203.5,204.5 Z"/></g>
<g><path style="opacity:0.99" fill="#bd4cff" d="M 101.5,307.5 C 135.5,307.5 169.5,307.5 203.5,307.5C 203.5,341.5 203.5,375.5 203.5,409.5C 169.833,409.5 136.167,409.5 102.5,409.5C 102.5,443.5 102.5,477.5 102.5,511.5C 68.1667,511.5 33.8333,511.5 -0.5,511.5C -0.5,477.167 -0.5,442.833 -0.5,408.5C 33.5,408.5 67.5,408.5 101.5,408.5C 101.5,374.833 101.5,341.167 101.5,307.5 Z"/></g>
<g><path style="opacity:0.996" fill="#b12cff" d="M 101.5,307.5 C 101.5,307.167 101.5,306.833 101.5,306.5C 135.833,306.5 170.167,306.5 204.5,306.5C 204.5,340.833 204.5,375.167 204.5,409.5C 204.167,409.5 203.833,409.5 203.5,409.5C 203.5,375.5 203.5,341.5 203.5,307.5C 169.5,307.5 135.5,307.5 101.5,307.5 Z"/></g>
<g><path style="opacity:0.996" fill="#9a02f2" d="M 204.5,306.5 C 238.5,306.5 272.5,306.5 306.5,306.5C 306.5,340.833 306.5,375.167 306.5,409.5C 306.167,409.5 305.833,409.5 305.5,409.5C 305.5,375.5 305.5,341.5 305.5,307.5C 272.167,307.5 238.833,307.5 205.5,307.5C 205.5,341.5 205.5,375.5 205.5,409.5C 205.167,409.5 204.833,409.5 204.5,409.5C 204.5,375.167 204.5,340.833 204.5,306.5 Z"/></g>
<g><path style="opacity:0.996" fill="#9200e9" d="M 305.5,409.5 C 272.167,409.5 238.833,409.5 205.5,409.5C 205.5,375.5 205.5,341.5 205.5,307.5C 238.833,307.5 272.167,307.5 305.5,307.5C 305.5,341.5 305.5,375.5 305.5,409.5 Z"/></g>
<g><path style="opacity:0.996" fill="#b12cff" d="M 306.5,306.5 C 340.833,306.5 375.167,306.5 409.5,306.5C 409.5,306.833 409.5,307.167 409.5,307.5C 375.5,307.5 341.5,307.5 307.5,307.5C 307.5,341.5 307.5,375.5 307.5,409.5C 307.167,409.5 306.833,409.5 306.5,409.5C 306.5,375.167 306.5,340.833 306.5,306.5 Z"/></g>
<g><path style="opacity:0.99" fill="#bd4cff" d="M 409.5,307.5 C 409.5,341.167 409.5,374.833 409.5,408.5C 443.5,408.5 477.5,408.5 511.5,408.5C 511.5,442.833 511.5,477.167 511.5,511.5C 477.167,511.5 442.833,511.5 408.5,511.5C 408.5,477.5 408.5,443.5 408.5,409.5C 374.833,409.5 341.167,409.5 307.5,409.5C 307.5,375.5 307.5,341.5 307.5,307.5C 341.5,307.5 375.5,307.5 409.5,307.5 Z"/></g>
</svg>
